<svg xmlns="http://www.w3.org/2000/svg" width="32" height="32" fill="none" viewBox="0 0 32 32" id="temple">
  <path fill="url(#paint0_linear_18_7284)" d="M28.995 27.0601H15.6808V29.9701H28.995V27.0601Z"></path>
  <path fill="url(#paint1_linear_18_7284)" d="M15.9206 26.96H3.06506V29.98H15.9206V26.96Z"></path>
  <path fill="url(#paint2_linear_18_7284)" d="M15.9206 26.96H3.06506V29.98H15.9206V26.96Z"></path>
  <path fill="url(#paint3_linear_18_7284)" d="M28.035 23.98H15.9205V27.06H28.035V23.98Z"></path>
  <path fill="url(#paint4_linear_18_7284)" d="M15.9206 23.98H4.03503V27.06H15.9206V23.98Z"></path>
  <path fill="url(#paint5_linear_18_7284)" d="M15.9206 23.98H4.03503V27.06H15.9206V23.98Z"></path>
  <path fill="url(#paint6_linear_18_7284)" d="M27.0751 20.99H15.7209V23.97H27.0751V20.99Z"></path>
  <path fill="url(#paint7_linear_18_7284)" d="M15.535 20.99H5.03503V23.97H15.535V20.99Z"></path>
  <path fill="url(#paint8_linear_18_7284)" d="M15.535 20.99H5.03503V23.97H15.535V20.99Z"></path>
  <path fill="url(#paint9_radial_18_7284)" d="M19.035 7.97998H13.035V9.96998H19.035V7.97998Z"></path>
  <path fill="url(#paint10_linear_18_7284)" d="M19.035 7.97998H13.035V9.96998H19.035V7.97998Z"></path>
  <path fill="url(#paint11_radial_18_7284)" d="M19.485 7.97998H12.665C12.395 7.97998 12.175 7.75998 12.175 7.48998V7.46998C12.175 7.19998 12.395 6.97998 12.665 6.97998H19.485C19.755 6.97998 19.975 7.19998 19.975 7.46998V7.47998C19.975 7.74998 19.755 7.97998 19.485 7.97998Z"></path>
  <path fill="url(#paint12_radial_18_7284)" d="M19.485 7.97998H12.665C12.395 7.97998 12.175 7.75998 12.175 7.48998V7.46998C12.175 7.19998 12.395 6.97998 12.665 6.97998H19.485C19.755 6.97998 19.975 7.19998 19.975 7.46998V7.47998C19.975 7.74998 19.755 7.97998 19.485 7.97998Z"></path>
  <path fill="url(#paint13_radial_18_7284)" d="M19.035 6.97991H13.035C13.035 6.42991 13.485 5.98991 14.025 5.98991H18.035C18.595 5.97991 19.035 6.42991 19.035 6.97991Z"></path>
  <path fill="url(#paint14_radial_18_7284)" d="M19.035 6.97991H13.035C13.035 6.42991 13.485 5.98991 14.025 5.98991H18.035C18.595 5.97991 19.035 6.42991 19.035 6.97991Z"></path>
  <g filter="url(#filter0_i_18_7284)">
    <path fill="url(#paint15_linear_18_7284)" d="M16.035 5.05C15.485 5.05 15.035 4.61 15.035 4.06V4.03C15.035 3.49 15.485 2 16.035 2C16.585 2 17.035 3.49 17.035 4.03V4.07C17.035 4.61 16.595 5.05 16.035 5.05Z"></path>
    <path fill="url(#paint16_linear_18_7284)" d="M16.035 5.05C15.485 5.05 15.035 4.61 15.035 4.06V4.03C15.035 3.49 15.485 2 16.035 2C16.585 2 17.035 3.49 17.035 4.03V4.07C17.035 4.61 16.595 5.05 16.035 5.05Z"></path>
    <path fill="url(#paint17_linear_18_7284)" d="M16.035 5.05C15.485 5.05 15.035 4.61 15.035 4.06V4.03C15.035 3.49 15.485 2 16.035 2C16.585 2 17.035 3.49 17.035 4.03V4.07C17.035 4.61 16.595 5.05 16.035 5.05Z"></path>
  </g>
  <path fill="url(#paint18_linear_18_7284)" d="M16.545 5.98975H15.535C15.265 5.98975 15.035 5.76975 15.035 5.48975C15.035 5.21975 15.255 4.98975 15.535 4.98975H16.545C16.815 4.98975 17.045 5.20975 17.045 5.48975C17.035 5.76975 16.815 5.98975 16.545 5.98975Z"></path>
  <path fill="url(#paint19_linear_18_7284)" d="M16.545 5.98975H15.535C15.265 5.98975 15.035 5.76975 15.035 5.48975C15.035 5.21975 15.255 4.98975 15.535 4.98975H16.545C16.815 4.98975 17.045 5.20975 17.045 5.48975C17.035 5.76975 16.815 5.98975 16.545 5.98975Z"></path>
  <path fill="url(#paint20_radial_18_7284)" d="M16.545 5.98975H15.535C15.265 5.98975 15.035 5.76975 15.035 5.48975C15.035 5.21975 15.255 4.98975 15.535 4.98975H16.545C16.815 4.98975 17.045 5.20975 17.045 5.48975C17.035 5.76975 16.815 5.98975 16.545 5.98975Z"></path>
  <path fill="url(#paint21_linear_18_7284)" d="M29.535 27.97H2.54503C2.26503 27.97 2.03503 27.74 2.03503 27.46C2.03503 27.18 2.26503 26.95 2.54503 26.95H29.535C29.815 26.95 30.045 27.18 30.045 27.46C30.035 27.74 29.815 27.97 29.535 27.97Z"></path>
  <path fill="url(#paint22_linear_18_7284)" d="M29.535 27.97H2.54503C2.26503 27.97 2.03503 27.74 2.03503 27.46C2.03503 27.18 2.26503 26.95 2.54503 26.95H29.535C29.815 26.95 30.045 27.18 30.045 27.46C30.035 27.74 29.815 27.97 29.535 27.97Z"></path>
  <path fill="url(#paint23_linear_18_7284)" d="M28.495 24.98H3.505C3.235 24.98 3.005 24.76 3.005 24.48V24.46C3.005 24.19 3.225 23.96 3.505 23.96H28.495C28.765 23.96 28.995 24.18 28.995 24.46V24.48C28.985 24.76 28.765 24.98 28.495 24.98Z"></path>
  <path fill="url(#paint24_linear_18_7284)" d="M28.495 24.98H3.505C3.235 24.98 3.005 24.76 3.005 24.48V24.46C3.005 24.19 3.225 23.96 3.505 23.96H28.495C28.765 23.96 28.995 24.18 28.995 24.46V24.48C28.985 24.76 28.765 24.98 28.495 24.98Z"></path>
  <path fill="url(#paint25_linear_18_7284)" d="M27.535 21.98H4.54504C4.26504 21.98 4.04504 21.75 4.04504 21.48C4.04504 21.2 4.27504 20.98 4.54504 20.98H27.535C27.815 20.98 28.035 21.21 28.035 21.48C28.035 21.75 27.815 21.98 27.535 21.98Z"></path>
  <path fill="url(#paint26_linear_18_7284)" d="M27.535 21.98H4.54504C4.26504 21.98 4.04504 21.75 4.04504 21.48C4.04504 21.2 4.27504 20.98 4.54504 20.98H27.535C27.815 20.98 28.035 21.21 28.035 21.48C28.035 21.75 27.815 21.98 27.535 21.98Z"></path>
  <path fill="url(#paint27_linear_18_7284)" d="M26.0351 18H15.7209V20.98H26.0351V18Z"></path>
  <path fill="url(#paint28_linear_18_7284)" d="M15.7209 18H6.02502V20.98H15.7209V18Z"></path>
  <path fill="url(#paint29_linear_18_7284)" d="M15.7209 18H6.02502V20.98H15.7209V18Z"></path>
  <path fill="url(#paint30_linear_18_7284)" d="M26.5951 18.98H5.48512C5.21512 18.98 4.99512 18.76 4.99512 18.49V18.45C4.99512 18.18 5.21512 17.96 5.48512 17.96H26.5551C26.8451 17.96 27.0751 18.19 27.0751 18.48V18.49C27.0751 18.76 26.8551 18.98 26.5951 18.98Z"></path>
  <path fill="url(#paint31_linear_18_7284)" d="M26.5951 18.98H5.48512C5.21512 18.98 4.99512 18.76 4.99512 18.49V18.45C4.99512 18.18 5.21512 17.96 5.48512 17.96H26.5551C26.8451 17.96 27.0751 18.19 27.0751 18.48V18.49C27.0751 18.76 26.8551 18.98 26.5951 18.98Z"></path>
  <path fill="url(#paint32_linear_18_7284)" d="M24.035 14.98H8.03503V17.98H24.035V14.98Z"></path>
  <path fill="url(#paint33_linear_18_7284)" d="M24.035 14.98H15.9205V17.98H24.035V14.98Z"></path>
  <path fill="url(#paint34_linear_18_7284)" d="M15.7209 14.98H8.03503V17.98H15.7209V14.98Z"></path>
  <path fill="url(#paint35_linear_18_7284)" d="M15.7209 14.98H8.03503V17.98H15.7209V14.98Z"></path>
  <path fill="url(#paint36_linear_18_7284)" d="M24.5251 15.99H7.44506C7.16506 15.99 6.93506 15.76 6.93506 15.48C6.93506 15.2 7.16506 14.97 7.44506 14.97H24.5251C24.8051 14.97 25.0351 15.2 25.0351 15.48C25.0351 15.76 24.8151 15.99 24.5251 15.99Z"></path>
  <path fill="url(#paint37_linear_18_7284)" d="M24.5251 15.99H7.44506C7.16506 15.99 6.93506 15.76 6.93506 15.48C6.93506 15.2 7.16506 14.97 7.44506 14.97H24.5251C24.8051 14.97 25.0351 15.2 25.0351 15.48C25.0351 15.76 24.8151 15.99 24.5251 15.99Z"></path>
  <path fill="url(#paint38_linear_18_7284)" d="M23.035 29.9799H9.03503V12.9799C9.03503 10.7699 10.7962 9.13697 13.035 8.97987C15.2738 8.82277 17.0257 8.85015 19.035 8.97987C21.0444 9.1096 23.035 10.7699 23.035 12.9799V29.9799Z"></path>
  <path fill="url(#paint39_radial_18_7284)" d="M23.035 29.9799H9.03503V12.9799C9.03503 10.7699 10.7962 9.13697 13.035 8.97987C15.2738 8.82277 17.0257 8.85015 19.035 8.97987C21.0444 9.1096 23.035 10.7699 23.035 12.9799V29.9799Z"></path>
  <path fill="url(#paint40_linear_18_7284)" d="M23.035 29.9799H9.03503V12.9799C9.03503 10.7699 10.7962 9.13697 13.035 8.97987C15.2738 8.82277 17.0257 8.85015 19.035 8.97987C21.0444 9.1096 23.035 10.7699 23.035 12.9799V29.9799Z"></path>
  <path fill="#AA7369" d="M20.045 23.04H12.035V29.97H20.045V23.04Z"></path>
  <path fill="url(#paint41_radial_18_7284)" d="M20.045 23.04H12.035V29.97H20.045V23.04Z"></path>
  <path fill="url(#paint42_linear_18_7284)" d="M20.045 23.04H12.035V29.97H20.045V23.04Z"></path>
  <path fill="url(#paint43_linear_18_7284)" d="M20.045 23.04H12.035V29.97H20.045V23.04Z"></path>
  <g filter="url(#filter1_i_18_7284)">
    <path fill="url(#paint44_linear_18_7284)" d="M18.025 29.98H14.035V25.87C14.035 25.38 14.435 24.98 14.925 24.98H17.125C17.615 24.98 18.015 25.38 18.015 25.87V29.98H18.025Z"></path>
    <path fill="url(#paint45_linear_18_7284)" d="M18.025 29.98H14.035V25.87C14.035 25.38 14.435 24.98 14.925 24.98H17.125C17.615 24.98 18.015 25.38 18.015 25.87V29.98H18.025Z"></path>
  </g>
  <path fill="url(#paint46_linear_18_7284)" d="M13.5551 17.25L11.9751 22.95H19.8251L18.2151 17.25H13.5551Z"></path>
  <path fill="url(#paint47_radial_18_7284)" d="M13.5551 17.25L11.9751 22.95H19.8251L18.2151 17.25H13.5551Z"></path>
  <path fill="url(#paint48_radial_18_7284)" d="M13.5551 17.25L11.9751 22.95H19.8251L18.2151 17.25H13.5551Z"></path>
  <path fill="#FFCE38" d="M10.615 23.98H21.425C21.865 23.98 22.155 23.54 21.955 23.17L21.475 22.28C21.375 22.09 21.175 21.98 20.945 21.98H11.095C10.875 21.98 10.665 22.1 10.565 22.28L10.085 23.17C9.895 23.54 10.175 23.98 10.615 23.98Z"></path>
  <path fill="url(#paint49_radial_18_7284)" d="M10.615 23.98H21.425C21.865 23.98 22.155 23.54 21.955 23.17L21.475 22.28C21.375 22.09 21.175 21.98 20.945 21.98H11.095C10.875 21.98 10.665 22.1 10.565 22.28L10.085 23.17C9.895 23.54 10.175 23.98 10.615 23.98Z"></path>
  <path fill="url(#paint50_linear_18_7284)" d="M10.615 23.98H21.425C21.865 23.98 22.155 23.54 21.955 23.17L21.475 22.28C21.375 22.09 21.175 21.98 20.945 21.98H11.095C10.875 21.98 10.665 22.1 10.565 22.28L10.085 23.17C9.895 23.54 10.175 23.98 10.615 23.98Z"></path>
  <path fill="url(#paint51_radial_18_7284)" d="M10.615 23.98H21.425C21.865 23.98 22.155 23.54 21.955 23.17L21.475 22.28C21.375 22.09 21.175 21.98 20.945 21.98H11.095C10.875 21.98 10.665 22.1 10.565 22.28L10.085 23.17C9.895 23.54 10.175 23.98 10.615 23.98Z"></path>
  <path fill="url(#paint52_radial_18_7284)" d="M10.615 23.98H21.425C21.865 23.98 22.155 23.54 21.955 23.17L21.475 22.28C21.375 22.09 21.175 21.98 20.945 21.98H11.095C10.875 21.98 10.665 22.1 10.565 22.28L10.085 23.17C9.895 23.54 10.175 23.98 10.615 23.98Z"></path>
  <path fill="#FFCE38" d="M11.635 20.98H20.435C20.875 20.98 21.165 20.54 20.965 20.17L20.485 19.28C20.385 19.09 20.185 18.97 19.955 18.97H12.115C11.895 18.97 11.685 19.09 11.585 19.28L11.105 20.17C10.915 20.54 11.195 20.98 11.635 20.98Z"></path>
  <path fill="url(#paint53_radial_18_7284)" d="M11.635 20.98H20.435C20.875 20.98 21.165 20.54 20.965 20.17L20.485 19.28C20.385 19.09 20.185 18.97 19.955 18.97H12.115C11.895 18.97 11.685 19.09 11.585 19.28L11.105 20.17C10.915 20.54 11.195 20.98 11.635 20.98Z"></path>
  <path fill="url(#paint54_linear_18_7284)" d="M11.635 20.98H20.435C20.875 20.98 21.165 20.54 20.965 20.17L20.485 19.28C20.385 19.09 20.185 18.97 19.955 18.97H12.115C11.895 18.97 11.685 19.09 11.585 19.28L11.105 20.17C10.915 20.54 11.195 20.98 11.635 20.98Z"></path>
  <path fill="url(#paint55_radial_18_7284)" d="M11.635 20.98H20.435C20.875 20.98 21.165 20.54 20.965 20.17L20.485 19.28C20.385 19.09 20.185 18.97 19.955 18.97H12.115C11.895 18.97 11.685 19.09 11.585 19.28L11.105 20.17C10.915 20.54 11.195 20.98 11.635 20.98Z"></path>
  <path fill="url(#paint56_linear_18_7284)" d="M18.025 16H14.035C14.035 15.44 14.495 14.98 15.055 14.98H17.005C17.575 14.98 18.025 15.44 18.025 16Z"></path>
  <path fill="#FFCE38" d="M12.6351 17.98H19.4451C19.8851 17.98 20.1751 17.54 19.9751 17.17L19.4951 16.29C19.3951 16.1 19.1951 15.99 18.9651 15.99H13.1151C12.8951 15.99 12.6851 16.11 12.5851 16.29L12.1051 17.17C11.9051 17.54 12.1951 17.98 12.6351 17.98Z"></path>
  <path fill="url(#paint57_radial_18_7284)" d="M12.6351 17.98H19.4451C19.8851 17.98 20.1751 17.54 19.9751 17.17L19.4951 16.29C19.3951 16.1 19.1951 15.99 18.9651 15.99H13.1151C12.8951 15.99 12.6851 16.11 12.5851 16.29L12.1051 17.17C11.9051 17.54 12.1951 17.98 12.6351 17.98Z"></path>
  <path fill="url(#paint58_linear_18_7284)" d="M12.6351 17.98H19.4451C19.8851 17.98 20.1751 17.54 19.9751 17.17L19.4951 16.29C19.3951 16.1 19.1951 15.99 18.9651 15.99H13.1151C12.8951 15.99 12.6851 16.11 12.5851 16.29L12.1051 17.17C11.9051 17.54 12.1951 17.98 12.6351 17.98Z"></path>
  <path fill="url(#paint59_radial_18_7284)" d="M12.6351 17.98H19.4451C19.8851 17.98 20.1751 17.54 19.9751 17.17L19.4951 16.29C19.3951 16.1 19.1951 15.99 18.9651 15.99H13.1151C12.8951 15.99 12.6851 16.11 12.5851 16.29L12.1051 17.17C11.9051 17.54 12.1951 17.98 12.6351 17.98Z"></path>
  <path fill="url(#paint60_radial_18_7284)" d="M16.035 14.98C16.3112 14.98 16.535 14.7561 16.535 14.48C16.535 14.2038 16.3112 13.98 16.035 13.98C15.7589 13.98 15.535 14.2038 15.535 14.48C15.535 14.7561 15.7589 14.98 16.035 14.98Z"></path>
  <path fill="url(#paint61_linear_18_7284)" d="M16.035 14.98C16.3112 14.98 16.535 14.7561 16.535 14.48C16.535 14.2038 16.3112 13.98 16.035 13.98C15.7589 13.98 15.535 14.2038 15.535 14.48C15.535 14.7561 15.7589 14.98 16.035 14.98Z"></path>
  <g filter="url(#filter2_f_18_7284)">
    <path fill="url(#paint62_radial_18_7284)" d="M12.8451 12.9016H22.338C22.338 10.7192 20.5009 10.0378 19.5824 9.96997H12.8451V12.9016Z"></path>
  </g>
  <defs>
    <linearGradient id="paint0_linear_18_7284" x1="27.559" x2="27.559" y1="27.939" y2="30.243" gradientUnits="userSpaceOnUse">
      <stop stop-color="#85524F"></stop>
      <stop offset="1" stop-color="#925F59"></stop>
    </linearGradient>
    <linearGradient id="paint1_linear_18_7284" x1="5.112" x2="5.112" y1="27.197" y2="30.159" gradientUnits="userSpaceOnUse">
      <stop stop-color="#895855"></stop>
      <stop offset="1" stop-color="#9D6860"></stop>
      <stop offset="1" stop-color="#9C675F"></stop>
    </linearGradient>
    <linearGradient id="paint2_linear_18_7284" x1="3.149" x2="3.513" y1="28.984" y2="28.984" gradientUnits="userSpaceOnUse">
      <stop stop-color="#8D685D"></stop>
      <stop offset="1" stop-color="#896256" stop-opacity="0"></stop>
    </linearGradient>
    <linearGradient id="paint3_linear_18_7284" x1="26.729" x2="26.729" y1="24.91" y2="27.349" gradientUnits="userSpaceOnUse">
      <stop stop-color="#875141"></stop>
      <stop offset="1" stop-color="#876355"></stop>
    </linearGradient>
    <linearGradient id="paint4_linear_18_7284" x1="5.928" x2="5.928" y1="24.222" y2="27.06" gradientUnits="userSpaceOnUse">
      <stop stop-color="#8F5A53"></stop>
      <stop offset="1" stop-color="#9D6860"></stop>
      <stop offset="1" stop-color="#87564A"></stop>
    </linearGradient>
    <linearGradient id="paint5_linear_18_7284" x1="4.112" x2="4.449" y1="26.044" y2="26.044" gradientUnits="userSpaceOnUse">
      <stop stop-color="#846055"></stop>
      <stop offset="1" stop-color="#846055" stop-opacity="0"></stop>
    </linearGradient>
    <linearGradient id="paint6_linear_18_7284" x1="25.851" x2="25.851" y1="21.89" y2="24.249" gradientUnits="userSpaceOnUse">
      <stop stop-color="#875141"></stop>
      <stop offset="1" stop-color="#876355"></stop>
    </linearGradient>
    <linearGradient id="paint7_linear_18_7284" x1="6.707" x2="6.707" y1="21.224" y2="23.97" gradientUnits="userSpaceOnUse">
      <stop stop-color="#7D514C"></stop>
      <stop offset="1" stop-color="#9D6860"></stop>
      <stop offset="1" stop-color="#89584D"></stop>
    </linearGradient>
    <linearGradient id="paint8_linear_18_7284" x1="5.103" x2="5.401" y1="22.987" y2="22.987" gradientUnits="userSpaceOnUse">
      <stop stop-color="#7D584C"></stop>
      <stop offset="1" stop-color="#7D584C" stop-opacity="0"></stop>
    </linearGradient>
    <linearGradient id="paint10_linear_18_7284" x1="19.166" x2="18.633" y1="8.577" y2="8.577" gradientUnits="userSpaceOnUse">
      <stop stop-color="#997061"></stop>
      <stop offset="1" stop-color="#997061" stop-opacity="0"></stop>
    </linearGradient>
    <linearGradient id="paint15_linear_18_7284" x1="15.473" x2="17.038" y1="3.525" y2="3.527" gradientUnits="userSpaceOnUse">
      <stop stop-color="#EBB932"></stop>
      <stop offset=".419" stop-color="#FFD94C"></stop>
      <stop offset=".971" stop-color="#FFEF6C"></stop>
    </linearGradient>
    <linearGradient id="paint16_linear_18_7284" x1="16.113" x2="16.113" y1="5.089" y2="4.136" gradientUnits="userSpaceOnUse">
      <stop stop-color="#FFBA23"></stop>
      <stop offset=".466" stop-color="#FFBA23"></stop>
      <stop offset="1" stop-color="#FFBA23" stop-opacity="0"></stop>
    </linearGradient>
    <linearGradient id="paint17_linear_18_7284" x1="16.035" x2="16.035" y1="5.246" y2="4.855" gradientUnits="userSpaceOnUse">
      <stop offset=".6" stop-color="#B86C16"></stop>
      <stop offset="1" stop-color="#B86C16" stop-opacity="0"></stop>
    </linearGradient>
    <linearGradient id="paint18_linear_18_7284" x1="15.832" x2="15.832" y1="4.99" y2="6.12" gradientUnits="userSpaceOnUse">
      <stop offset=".499" stop-color="#FFCC38"></stop>
      <stop offset="1" stop-color="#DB7207"></stop>
    </linearGradient>
    <linearGradient id="paint19_linear_18_7284" x1="14.926" x2="15.605" y1="5.667" y2="5.667" gradientUnits="userSpaceOnUse">
      <stop offset=".274" stop-color="#C4A25C"></stop>
      <stop offset="1" stop-color="#C4A25C" stop-opacity="0"></stop>
    </linearGradient>
    <linearGradient id="paint21_linear_18_7284" x1="2.043" x2="30.05" y1="27.455" y2="27.455" gradientUnits="userSpaceOnUse">
      <stop stop-color="#271830"></stop>
      <stop offset="1" stop-color="#503659"></stop>
    </linearGradient>
    <linearGradient id="paint22_linear_18_7284" x1="30.136" x2="29.428" y1="27.46" y2="27.46" gradientUnits="userSpaceOnUse">
      <stop stop-color="#5D486E"></stop>
      <stop offset="1" stop-color="#5D486E" stop-opacity="0"></stop>
    </linearGradient>
    <linearGradient id="paint23_linear_18_7284" x1="3.013" x2="28.999" y1="24.465" y2="24.465" gradientUnits="userSpaceOnUse">
      <stop stop-color="#271830"></stop>
      <stop offset="1" stop-color="#503659"></stop>
    </linearGradient>
    <linearGradient id="paint24_linear_18_7284" x1="29.079" x2="28.423" y1="24.47" y2="24.47" gradientUnits="userSpaceOnUse">
      <stop stop-color="#5D486E"></stop>
      <stop offset="1" stop-color="#5D486E" stop-opacity="0"></stop>
    </linearGradient>
    <linearGradient id="paint25_linear_18_7284" x1="4.052" x2="28.039" y1="21.475" y2="21.475" gradientUnits="userSpaceOnUse">
      <stop stop-color="#271830"></stop>
      <stop offset="1" stop-color="#503659"></stop>
    </linearGradient>
    <linearGradient id="paint26_linear_18_7284" x1="28.113" x2="27.507" y1="21.48" y2="21.48" gradientUnits="userSpaceOnUse">
      <stop stop-color="#5D486E"></stop>
      <stop offset="1" stop-color="#5D486E" stop-opacity="0"></stop>
    </linearGradient>
    <linearGradient id="paint27_linear_18_7284" x1="24.923" x2="24.923" y1="18.9" y2="21.259" gradientUnits="userSpaceOnUse">
      <stop stop-color="#875141"></stop>
      <stop offset="1" stop-color="#876355"></stop>
    </linearGradient>
    <linearGradient id="paint28_linear_18_7284" x1="7.569" x2="7.569" y1="18.234" y2="20.98" gradientUnits="userSpaceOnUse">
      <stop stop-color="#7D514C"></stop>
      <stop offset="1" stop-color="#9D6860"></stop>
      <stop offset="1" stop-color="#89584D"></stop>
    </linearGradient>
    <linearGradient id="paint29_linear_18_7284" x1="6.088" x2="6.363" y1="19.997" y2="19.997" gradientUnits="userSpaceOnUse">
      <stop stop-color="#7D584C"></stop>
      <stop offset="1" stop-color="#7D584C" stop-opacity="0"></stop>
    </linearGradient>
    <linearGradient id="paint30_linear_18_7284" x1="5.002" x2="27.079" y1="18.465" y2="18.465" gradientUnits="userSpaceOnUse">
      <stop stop-color="#271830"></stop>
      <stop offset="1" stop-color="#503659"></stop>
    </linearGradient>
    <linearGradient id="paint31_linear_18_7284" x1="27.147" x2="26.589" y1="18.47" y2="18.47" gradientUnits="userSpaceOnUse">
      <stop stop-color="#5D486E"></stop>
      <stop offset="1" stop-color="#5D486E" stop-opacity="0"></stop>
    </linearGradient>
    <linearGradient id="paint32_linear_18_7284" x1="16.038" x2="16.038" y1="14.98" y2="17.98" gradientUnits="userSpaceOnUse">
      <stop stop-color="#6A4532"></stop>
      <stop offset="1" stop-color="#A2694F"></stop>
    </linearGradient>
    <linearGradient id="paint33_linear_18_7284" x1="23.16" x2="23.16" y1="15.886" y2="18.261" gradientUnits="userSpaceOnUse">
      <stop stop-color="#875141"></stop>
      <stop offset="1" stop-color="#876355"></stop>
    </linearGradient>
    <linearGradient id="paint34_linear_18_7284" x1="9.259" x2="9.259" y1="15.216" y2="17.98" gradientUnits="userSpaceOnUse">
      <stop stop-color="#85584B"></stop>
      <stop offset="1" stop-color="#9D6860"></stop>
      <stop offset="1" stop-color="#7A5246"></stop>
    </linearGradient>
    <linearGradient id="paint35_linear_18_7284" x1="8.085" x2="8.303" y1="16.991" y2="16.991" gradientUnits="userSpaceOnUse">
      <stop stop-color="#704F43"></stop>
      <stop offset="1" stop-color="#704F43" stop-opacity="0"></stop>
    </linearGradient>
    <linearGradient id="paint36_linear_18_7284" x1="6.94" x2="25.038" y1="15.475" y2="15.475" gradientUnits="userSpaceOnUse">
      <stop stop-color="#271830"></stop>
      <stop offset="1" stop-color="#503659"></stop>
    </linearGradient>
    <linearGradient id="paint37_linear_18_7284" x1="25.094" x2="24.637" y1="15.48" y2="15.48" gradientUnits="userSpaceOnUse">
      <stop stop-color="#5D486E"></stop>
      <stop offset="1" stop-color="#5D486E" stop-opacity="0"></stop>
    </linearGradient>
    <linearGradient id="paint38_linear_18_7284" x1="9.038" x2="23.038" y1="19.475" y2="19.475" gradientUnits="userSpaceOnUse">
      <stop stop-color="#EA7B3A"></stop>
      <stop offset="1" stop-color="#FFB336"></stop>
    </linearGradient>
    <linearGradient id="paint40_linear_18_7284" x1="16.035" x2="16.035" y1="8.777" y2="9.003" gradientUnits="userSpaceOnUse">
      <stop offset=".207" stop-color="#8F4021"></stop>
      <stop offset="1" stop-color="#8F4021" stop-opacity="0"></stop>
    </linearGradient>
    <linearGradient id="paint42_linear_18_7284" x1="20.324" x2="19.09" y1="27.118" y2="27.118" gradientUnits="userSpaceOnUse">
      <stop stop-color="#96695B"></stop>
      <stop offset="1" stop-color="#96695B" stop-opacity="0"></stop>
    </linearGradient>
    <linearGradient id="paint43_linear_18_7284" x1="12.035" x2="12.693" y1="27.492" y2="27.492" gradientUnits="userSpaceOnUse">
      <stop stop-color="#96695B"></stop>
      <stop offset="1" stop-color="#96695B" stop-opacity="0"></stop>
    </linearGradient>
    <linearGradient id="paint44_linear_18_7284" x1="14.035" x2="18.341" y1="27.884" y2="27.716" gradientUnits="userSpaceOnUse">
      <stop stop-color="#432E5A"></stop>
      <stop offset="1" stop-color="#4A3260"></stop>
    </linearGradient>
    <linearGradient id="paint45_linear_18_7284" x1="14.035" x2="14.53" y1="28.325" y2="28.325" gradientUnits="userSpaceOnUse">
      <stop stop-color="#5B4972"></stop>
      <stop offset="1" stop-color="#5B4972" stop-opacity="0"></stop>
    </linearGradient>
    <linearGradient id="paint46_linear_18_7284" x1="16.441" x2="16.441" y1="22.95" y2="18.168" gradientUnits="userSpaceOnUse">
      <stop stop-color="#8F5E52"></stop>
      <stop offset="1" stop-color="#905D53"></stop>
    </linearGradient>
    <linearGradient id="paint50_linear_18_7284" x1="15.047" x2="15.047" y1="24.215" y2="23.333" gradientUnits="userSpaceOnUse">
      <stop offset=".432" stop-color="#E19620"></stop>
      <stop offset="1" stop-color="#E19620" stop-opacity="0"></stop>
    </linearGradient>
    <linearGradient id="paint54_linear_18_7284" x1="15.226" x2="15.226" y1="21.217" y2="20.329" gradientUnits="userSpaceOnUse">
      <stop offset=".432" stop-color="#E19620"></stop>
      <stop offset="1" stop-color="#E19620" stop-opacity="0"></stop>
    </linearGradient>
    <linearGradient id="paint56_linear_18_7284" x1="14.038" x2="18.026" y1="15.489" y2="15.489" gradientUnits="userSpaceOnUse">
      <stop stop-color="#3A2B47"></stop>
      <stop offset="1" stop-color="#59466A"></stop>
    </linearGradient>
    <linearGradient id="paint58_linear_18_7284" x1="15.39" x2="15.39" y1="18.214" y2="17.336" gradientUnits="userSpaceOnUse">
      <stop offset=".432" stop-color="#E19620"></stop>
      <stop offset="1" stop-color="#E19620" stop-opacity="0"></stop>
    </linearGradient>
    <linearGradient id="paint61_linear_18_7284" x1="16.035" x2="16.035" y1="15.079" y2="14.781" gradientUnits="userSpaceOnUse">
      <stop stop-color="#3D2A1D"></stop>
      <stop offset="1" stop-color="#3D2A1D" stop-opacity="0"></stop>
    </linearGradient>
    <radialGradient id="paint9_radial_18_7284" cx="0" cy="0" r="1" gradientTransform="matrix(0 2.47017 -4.34899 0 16.035 7.98)" gradientUnits="userSpaceOnUse">
      <stop offset=".136" stop-color="#74382B"></stop>
      <stop offset="1" stop-color="#9A6450"></stop>
    </radialGradient>
    <radialGradient id="paint11_radial_18_7284" cx="0" cy="0" r="1" gradientTransform="matrix(-5.83345 0 0 -1.6165 19.049 7.48)" gradientUnits="userSpaceOnUse">
      <stop stop-color="#50335C"></stop>
      <stop offset="1" stop-color="#2E263A"></stop>
    </radialGradient>
    <radialGradient id="paint12_radial_18_7284" cx="0" cy="0" r="1" gradientTransform="matrix(-3.08399 0 0 -.55407 18.746 7.383)" gradientUnits="userSpaceOnUse">
      <stop stop-color="#5E4A70"></stop>
      <stop offset="1" stop-color="#5E4A70" stop-opacity="0"></stop>
    </radialGradient>
    <radialGradient id="paint13_radial_18_7284" cx="0" cy="0" r="1" gradientTransform="matrix(-4.35938 0 0 -1.25007 17.629 6.98)" gradientUnits="userSpaceOnUse">
      <stop stop-color="#FFC866"></stop>
      <stop offset="1" stop-color="#EC9130"></stop>
    </radialGradient>
    <radialGradient id="paint14_radial_18_7284" cx="0" cy="0" r="1" gradientTransform="matrix(-5.26099 0 0 -31.8795 18.296 6.98)" gradientUnits="userSpaceOnUse">
      <stop offset=".739" stop-color="#A96F48" stop-opacity="0"></stop>
      <stop offset="1" stop-color="#A96F48"></stop>
    </radialGradient>
    <radialGradient id="paint20_radial_18_7284" cx="0" cy="0" r="1" gradientTransform="matrix(-.66624 0 0 -.70313 17.045 5.3)" gradientUnits="userSpaceOnUse">
      <stop offset=".121" stop-color="#FFF169"></stop>
      <stop offset="1" stop-color="#FFF169" stop-opacity="0"></stop>
    </radialGradient>
    <radialGradient id="paint39_radial_18_7284" cx="0" cy="0" r="1" gradientTransform="rotate(-121.562 16.708 7.191)scale(17.9899 16.9883)" gradientUnits="userSpaceOnUse">
      <stop offset=".891" stop-color="#BD8063" stop-opacity="0"></stop>
      <stop offset="1" stop-color="#BD8063"></stop>
    </radialGradient>
    <radialGradient id="paint41_radial_18_7284" cx="0" cy="0" r="1" gradientTransform="matrix(0 .6079 -5.91125 0 16.04 23.776)" gradientUnits="userSpaceOnUse">
      <stop offset=".25" stop-color="#864840"></stop>
      <stop offset="1" stop-color="#864840" stop-opacity="0"></stop>
    </radialGradient>
    <radialGradient id="paint47_radial_18_7284" cx="0" cy="0" r="1" gradientTransform="matrix(0 .5 -3.83375 0 15.9 17.855)" gradientUnits="userSpaceOnUse">
      <stop offset=".25" stop-color="#864840"></stop>
      <stop offset="1" stop-color="#864840" stop-opacity="0"></stop>
    </radialGradient>
    <radialGradient id="paint48_radial_18_7284" cx="0" cy="0" r="1" gradientTransform="matrix(0 .46875 -3.59414 0 15.9 20.996)" gradientUnits="userSpaceOnUse">
      <stop offset=".083" stop-color="#864840"></stop>
      <stop offset="1" stop-color="#864840" stop-opacity="0"></stop>
    </radialGradient>
    <radialGradient id="paint49_radial_18_7284" cx="0" cy="0" r="1" gradientTransform="matrix(7.99072 1.7295 -.76148 3.51824 13.143 21.591)" gradientUnits="userSpaceOnUse">
      <stop offset=".815" stop-color="#FFE666" stop-opacity="0"></stop>
      <stop offset="1" stop-color="#FFE666"></stop>
    </radialGradient>
    <radialGradient id="paint51_radial_18_7284" cx="0" cy="0" r="1" gradientTransform="matrix(0 -.95237 2.68781 0 20.493 24.345)" gradientUnits="userSpaceOnUse">
      <stop stop-color="#CE8440"></stop>
      <stop offset=".822" stop-color="#CE8440" stop-opacity="0"></stop>
    </radialGradient>
    <radialGradient id="paint52_radial_18_7284" cx="0" cy="0" r="1" gradientTransform="rotate(-27.991 52.246 -8.337)scale(1.20568 1.37028)" gradientUnits="userSpaceOnUse">
      <stop stop-color="#FCBF50"></stop>
      <stop offset="1" stop-color="#FCBF50" stop-opacity="0"></stop>
    </radialGradient>
    <radialGradient id="paint53_radial_18_7284" cx="0" cy="0" r="1" gradientTransform="matrix(6.6517 1.73814 -.9054 3.46487 13.64 18.58)" gradientUnits="userSpaceOnUse">
      <stop offset=".815" stop-color="#FFE666" stop-opacity="0"></stop>
      <stop offset="1" stop-color="#FFE666"></stop>
    </radialGradient>
    <radialGradient id="paint55_radial_18_7284" cx="0" cy="0" r="1" gradientTransform="rotate(-32.688 40.55 -8.56)scale(1.05301 1.31256)" gradientUnits="userSpaceOnUse">
      <stop stop-color="#FCBF50"></stop>
      <stop offset="1" stop-color="#FCBF50" stop-opacity="0"></stop>
    </radialGradient>
    <radialGradient id="paint57_radial_18_7284" cx="0" cy="0" r="1" gradientTransform="rotate(17.897 -42.485 52.638)scale(5.59966 3.48729)" gradientUnits="userSpaceOnUse">
      <stop offset=".815" stop-color="#FFE666" stop-opacity="0"></stop>
      <stop offset="1" stop-color="#FFE666"></stop>
    </radialGradient>
    <radialGradient id="paint59_radial_18_7284" cx="0" cy="0" r="1" gradientTransform="matrix(.70996 -.56304 .75172 .9479 12.04 17.548)" gradientUnits="userSpaceOnUse">
      <stop stop-color="#FCBF50"></stop>
      <stop offset="1" stop-color="#FCBF50" stop-opacity="0"></stop>
    </radialGradient>
    <radialGradient id="paint60_radial_18_7284" cx="0" cy="0" r="1" gradientTransform="rotate(133.122 5.057 10.72)scale(.75687)" gradientUnits="userSpaceOnUse">
      <stop stop-color="#FFE863"></stop>
      <stop offset="1" stop-color="#C29827"></stop>
    </radialGradient>
    <radialGradient id="paint62_radial_18_7284" cx="0" cy="0" r="1" gradientTransform="matrix(-.99246 -4.65319 5.54277 -1.1822 19.736 13.367)" gradientUnits="userSpaceOnUse">
      <stop offset=".156" stop-color="#FFC960"></stop>
      <stop offset="1" stop-color="#FFC960" stop-opacity="0"></stop>
    </radialGradient>
    <filter id="filter0_i_18_7284" width="2.1" height="3.05" x="15.035" y="2" color-interpolation-filters="sRGB" filterUnits="userSpaceOnUse">
      <feFlood flood-opacity="0" result="BackgroundImageFix"></feFlood>
      <feBlend in="SourceGraphic" in2="BackgroundImageFix" result="shape"></feBlend>
      <feColorMatrix in="SourceAlpha" result="hardAlpha" values="0 0 0 0 0 0 0 0 0 0 0 0 0 0 0 0 0 0 127 0"></feColorMatrix>
      <feOffset dx=".1"></feOffset>
      <feGaussianBlur stdDeviation=".2"></feGaussianBlur>
      <feComposite in2="hardAlpha" k2="-1" k3="1" operator="arithmetic"></feComposite>
      <feColorMatrix values="0 0 0 0 0.745833 0 0 0 0 0.621759 0 0 0 0 0.313872 0 0 0 1 0"></feColorMatrix>
      <feBlend in2="shape" result="effect1_innerShadow_18_7284"></feBlend>
    </filter>
    <filter id="filter1_i_18_7284" width="4.24" height="5.25" x="13.785" y="24.98" color-interpolation-filters="sRGB" filterUnits="userSpaceOnUse">
      <feFlood flood-opacity="0" result="BackgroundImageFix"></feFlood>
      <feBlend in="SourceGraphic" in2="BackgroundImageFix" result="shape"></feBlend>
      <feColorMatrix in="SourceAlpha" result="hardAlpha" values="0 0 0 0 0 0 0 0 0 0 0 0 0 0 0 0 0 0 127 0"></feColorMatrix>
      <feOffset dx="-.25" dy=".25"></feOffset>
      <feGaussianBlur stdDeviation=".125"></feGaussianBlur>
      <feComposite in2="hardAlpha" k2="-1" k3="1" operator="arithmetic"></feComposite>
      <feColorMatrix values="0 0 0 0 0.231373 0 0 0 0 0.141176 0 0 0 0 0.317647 0 0 0 1 0"></feColorMatrix>
      <feBlend in2="shape" result="effect1_innerShadow_18_7284"></feBlend>
    </filter>
    <filter id="filter2_f_18_7284" width="11.493" height="4.932" x="11.845" y="8.97" color-interpolation-filters="sRGB" filterUnits="userSpaceOnUse">
      <feFlood flood-opacity="0" result="BackgroundImageFix"></feFlood>
      <feBlend in="SourceGraphic" in2="BackgroundImageFix" result="shape"></feBlend>
      <feGaussianBlur result="effect1_foregroundBlur_18_7284" stdDeviation=".5"></feGaussianBlur>
    </filter>
  </defs>
</svg>
